<svg id="svg" version="1.1" xmlns="http://www.w3.org/2000/svg" xmlns:xlink="http://www.w3.org/1999/xlink" width="400" height="194.07407407407408" viewBox="0, 0, 400,194.07407407407408"><g id="svgg"><path id="path0" d="M245.254 25.747 C 245.182 25.819,245.124 57.741,245.124 96.684 L 245.124 167.492 262.785 167.492 L 280.446 167.492 280.446 158.758 L 280.446 150.024 271.131 150.024 L 261.815 150.024 261.815 96.749 L 261.815 43.474 271.132 43.474 L 280.450 43.474 280.400 34.595 L 280.349 25.716 262.867 25.666 C 253.252 25.639,245.326 25.675,245.254 25.747 M358.403 25.747 C 358.331 25.819,358.273 29.837,358.273 34.676 L 358.273 43.474 367.589 43.474 L 376.904 43.474 376.904 96.749 L 376.904 150.024 367.589 150.024 L 358.273 150.024 358.273 158.758 L 358.273 167.492 375.934 167.492 L 393.596 167.492 393.547 96.604 L 393.498 25.716 376.016 25.666 C 366.401 25.639,358.475 25.675,358.403 25.747 " stroke="none" fill="#fc6404" fill-rule="evenodd"></path><path id="path1" d="M332.654 98.981 L 332.654 138.962 338.671 138.962 L 344.687 138.962 344.687 98.981 L 344.687 59.000 338.671 59.000 L 332.654 59.000 332.654 98.981 M315.963 108.879 L 315.963 138.962 320.427 138.962 L 324.891 138.962 324.891 108.879 L 324.891 78.797 320.427 78.797 L 315.963 78.797 315.963 108.879 M302.183 113.828 L 302.183 138.962 305.968 138.962 L 309.753 138.962 309.753 113.828 L 309.753 88.695 305.968 88.695 L 302.183 88.695 302.183 113.828 M290.927 118.874 L 290.927 138.962 294.129 138.962 L 297.331 138.962 297.331 118.874 L 297.331 98.787 294.129 98.787 L 290.927 98.787 290.927 118.874 " stroke="none" fill="#fccc04" fill-rule="evenodd"></path><path id="path2" d="M16.037 32.921 C 12.243 34.895,10.100 39.019,10.100 44.347 C 10.100 46.850,10.869 50.434,11.553 51.118 C 11.710 51.275,11.839 51.464,11.839 51.538 C 11.839 52.339,14.470 55.027,15.824 55.611 C 16.248 55.793,16.746 56.019,16.931 56.113 C 17.396 56.348,20.328 56.328,20.475 56.089 C 20.541 55.983,20.745 55.895,20.928 55.895 C 22.148 55.895,25.619 52.642,25.619 51.498 C 25.619 51.355,25.695 51.237,25.789 51.237 C 26.013 51.237,26.668 49.667,27.002 48.326 C 27.464 46.474,27.351 41.578,26.802 39.630 C 25.263 34.178,19.966 30.877,16.037 32.921 M74.430 32.536 C 74.003 32.580,73.479 32.693,73.265 32.788 C 73.052 32.882,72.222 33.058,71.422 33.179 C 68.847 33.567,64.967 34.623,64.359 35.102 C 64.240 35.195,63.640 35.457,63.024 35.684 C 61.725 36.162,60.003 37.003,59.583 37.363 C 59.423 37.500,58.830 37.862,58.265 38.166 C 54.576 40.154,47.962 46.777,45.347 51.101 C 45.011 51.657,44.508 52.418,44.229 52.791 C 43.950 53.164,43.419 54.081,43.048 54.828 C 42.677 55.575,42.192 56.481,41.970 56.842 C 41.748 57.202,41.247 58.294,40.857 59.268 C 40.467 60.242,39.989 61.344,39.795 61.718 C 39.428 62.425,37.980 67.287,37.739 68.619 C 37.663 69.040,37.535 69.471,37.454 69.578 C 37.248 69.850,36.545 73.997,36.253 76.662 C 35.932 79.594,35.934 89.868,36.256 92.673 C 36.604 95.701,37.230 99.507,37.446 99.905 C 37.546 100.091,37.773 100.898,37.950 101.698 C 38.332 103.426,39.566 107.535,39.787 107.812 C 39.872 107.918,40.252 108.812,40.631 109.796 C 41.755 112.715,45.563 119.361,46.813 120.585 C 47.011 120.779,47.379 121.264,47.631 121.663 C 48.171 122.518,52.762 127.207,53.802 127.965 C 54.198 128.254,54.807 128.750,55.155 129.068 C 55.503 129.386,55.851 129.646,55.927 129.646 C 56.004 129.646,56.869 130.164,57.849 130.798 C 58.830 131.432,60.341 132.234,61.208 132.581 C 62.076 132.927,62.830 133.276,62.885 133.355 C 63.069 133.621,67.429 134.839,69.384 135.169 C 70.451 135.350,71.534 135.600,71.791 135.725 C 72.474 136.060,83.925 136.046,84.260 135.711 C 84.394 135.577,84.725 135.468,84.998 135.467 C 86.252 135.463,93.058 133.789,93.644 133.340 C 93.751 133.259,94.537 132.924,95.391 132.597 C 97.411 131.822,98.860 131.179,98.981 131.002 C 99.034 130.924,99.646 130.575,100.340 130.227 C 101.033 129.878,102.169 129.226,102.863 128.777 C 103.557 128.328,104.648 127.630,105.289 127.225 C 105.929 126.820,106.517 126.391,106.596 126.272 C 106.845 125.892,106.776 104.027,106.525 104.027 C 106.253 104.027,105.168 104.685,104.084 105.507 C 103.635 105.848,102.860 106.330,102.362 106.579 C 101.863 106.828,101.270 107.228,101.043 107.467 C 100.816 107.706,100.563 107.904,100.481 107.905 C 100.289 107.910,97.171 109.700,97.036 109.883 C 96.908 110.057,93.411 111.790,93.188 111.790 C 93.098 111.790,92.821 111.967,92.572 112.183 C 92.052 112.633,88.443 113.822,86.568 114.159 C 85.870 114.285,85.236 114.480,85.160 114.593 C 84.962 114.887,76.486 114.872,75.867 114.576 C 75.610 114.453,74.789 114.204,74.042 114.022 C 72.228 113.580,69.671 112.614,69.190 112.189 C 68.976 112.000,68.358 111.609,67.816 111.320 C 66.261 110.491,63.588 108.036,61.801 105.794 C 60.346 103.969,59.803 103.106,58.087 99.883 C 57.851 99.440,57.341 98.074,56.953 96.846 C 56.566 95.619,56.174 94.471,56.083 94.296 C 55.092 92.386,54.606 82.293,55.299 78.020 C 55.654 75.826,55.948 74.436,56.099 74.236 C 56.180 74.129,56.347 73.649,56.472 73.168 C 57.134 70.612,59.577 65.454,60.638 64.373 C 60.762 64.247,61.220 63.663,61.655 63.076 C 63.183 61.016,66.454 58.137,68.576 56.984 C 69.340 56.568,70.010 56.162,70.063 56.081 C 70.269 55.770,74.329 54.558,76.226 54.243 C 78.918 53.794,84.285 53.926,86.918 54.504 C 89.008 54.963,92.042 55.890,92.196 56.117 C 92.254 56.202,92.647 56.397,93.070 56.549 C 94.309 56.996,97.010 58.342,98.767 59.388 C 99.663 59.922,100.458 60.359,100.532 60.359 C 100.607 60.359,100.823 60.531,101.013 60.740 C 101.202 60.950,102.002 61.536,102.789 62.043 C 103.577 62.550,104.221 63.027,104.221 63.102 C 104.221 63.279,105.462 64.047,105.748 64.047 C 105.909 64.047,105.968 60.992,105.968 52.603 L 105.968 41.160 104.998 40.525 C 104.464 40.176,104.027 39.830,104.027 39.758 C 104.027 39.592,100.818 37.652,100.543 37.652 C 100.431 37.652,100.340 37.583,100.340 37.498 C 100.340 37.313,98.774 36.516,97.040 35.818 C 96.346 35.539,95.560 35.193,95.294 35.049 C 94.188 34.454,88.134 32.994,86.772 32.994 C 86.484 32.994,86.142 32.886,86.010 32.754 C 85.774 32.518,76.321 32.340,74.430 32.536 M187.482 32.935 C 185.411 33.923,183.625 35.835,182.907 37.833 C 182.712 38.374,182.492 38.816,182.418 38.816 C 181.347 38.816,181.347 49.045,182.419 49.879 C 182.487 49.932,182.711 50.369,182.917 50.849 C 183.809 52.935,185.708 55.033,187.211 55.593 C 187.734 55.787,188.244 56.022,188.345 56.115 C 189.348 57.032,194.174 55.598,195.384 54.023 C 195.681 53.637,196.153 53.049,196.432 52.716 C 197.141 51.871,198.081 49.632,198.355 48.132 C 198.482 47.438,198.664 46.719,198.759 46.533 C 198.985 46.094,198.984 42.404,198.758 41.967 C 198.662 41.782,198.439 40.966,198.263 40.155 C 197.907 38.517,197.095 36.664,196.387 35.873 C 196.133 35.589,195.651 35.021,195.317 34.612 C 193.664 32.585,189.902 31.780,187.482 32.935 M118.777 84.328 L 118.777 134.692 145.657 134.692 L 172.538 134.692 172.538 125.279 L 172.538 115.866 154.876 115.866 L 137.215 115.866 137.215 104.027 L 137.215 92.188 153.712 92.188 L 170.209 92.188 170.209 82.775 L 170.209 73.362 153.712 73.362 L 137.215 73.362 137.215 63.076 L 137.215 52.790 154.488 52.790 L 171.761 52.790 171.761 43.377 L 171.761 33.964 145.269 33.964 L 118.777 33.964 118.777 84.328 M10.869 100.631 L 10.869 134.692 18.826 134.692 L 26.783 134.692 26.783 100.631 L 26.783 66.570 18.826 66.570 L 10.869 66.570 10.869 100.631 M182.290 100.582 L 182.339 134.595 190.247 134.646 L 198.156 134.696 198.156 100.633 L 198.156 66.570 190.198 66.570 L 182.241 66.570 182.290 100.582 M176.031 153.130 L 176.031 167.686 177.972 167.686 L 179.913 167.686 179.913 160.897 L 179.913 154.108 180.824 153.279 C 181.325 152.823,181.879 152.311,182.056 152.140 C 183.603 150.646,186.213 151.286,187.579 153.495 C 187.694 153.681,187.813 156.625,187.870 160.699 L 187.967 167.589 190.068 167.644 L 192.169 167.699 192.106 160.444 C 192.064 155.663,191.972 153.096,191.834 152.917 C 191.719 152.767,191.513 152.251,191.376 151.771 C 190.231 147.754,183.883 146.374,180.864 149.485 C 180.472 149.888,180.098 150.218,180.032 150.218 C 179.967 150.218,179.913 147.598,179.913 144.396 L 179.913 138.574 177.972 138.574 L 176.031 138.574 176.031 153.130 M127.268 147.732 C 125.374 149.667,123.823 151.350,123.823 151.472 C 123.823 151.971,124.334 152.159,125.693 152.159 L 127.097 152.159 127.161 158.127 C 127.234 164.935,127.279 165.166,128.810 166.514 C 130.502 168.003,134.315 168.371,137.069 167.311 L 138.185 166.881 138.185 164.955 C 138.185 163.173,138.157 163.028,137.806 163.028 C 137.351 163.028,136.439 163.422,136.439 163.618 C 136.439 164.094,132.910 164.375,132.344 163.943 C 131.395 163.219,131.299 162.639,131.233 157.254 L 131.170 152.159 133.788 152.159 C 137.242 152.159,137.021 152.300,137.021 150.101 L 137.021 148.278 134.110 148.278 L 131.198 148.278 131.198 146.240 C 131.198 143.605,131.374 143.538,127.268 147.732 M144.493 148.152 C 143.140 148.598,142.105 149.223,141.347 150.053 C 140.942 150.496,140.462 151.002,140.279 151.177 C 137.711 153.637,138.068 161.990,140.871 165.012 C 141.262 165.434,141.647 165.895,141.728 166.037 C 142.922 168.144,150.256 168.566,153.942 166.739 L 155.361 166.036 155.417 164.047 C 155.482 161.691,155.651 161.760,153.002 163.061 C 150.452 164.312,146.869 164.657,145.902 163.744 C 145.768 163.616,145.296 163.277,144.853 162.990 C 143.998 162.434,142.843 160.487,142.843 159.600 C 142.843 159.350,142.756 159.146,142.649 159.146 C 142.542 159.146,142.455 159.015,142.455 158.855 C 142.455 158.602,143.318 158.564,149.054 158.564 L 155.653 158.564 155.653 157.042 C 155.653 153.235,153.797 149.768,151.098 148.533 C 149.704 147.895,145.932 147.678,144.493 148.152 M163.702 148.243 C 156.324 150.415,155.288 163.196,162.193 166.860 C 164.287 167.971,169.041 168.233,171.810 167.389 L 172.926 167.049 172.926 164.941 C 172.926 163.167,172.878 162.834,172.625 162.834 C 172.305 162.834,171.148 163.378,170.985 163.606 C 170.411 164.407,165.804 164.333,164.810 163.507 C 164.630 163.357,164.183 163.035,163.816 162.792 C 161.159 161.026,161.260 154.848,163.979 152.828 C 164.470 152.463,165.000 152.054,165.158 151.919 C 165.931 151.258,169.008 151.629,170.839 152.605 L 172.538 153.510 172.538 151.212 L 172.538 148.914 171.228 148.464 C 169.433 147.846,165.447 147.729,163.702 148.243 M149.764 152.274 C 150.620 152.962,151.281 154.067,151.466 155.119 L 151.594 155.847 147.219 155.847 C 142.243 155.847,142.481 155.947,143.303 154.197 C 144.489 151.673,147.793 150.689,149.764 152.274 M196.434 162.908 C 195.495 163.429,195.060 164.972,195.452 166.386 C 195.999 168.354,199.610 168.510,200.409 166.599 C 201.496 163.997,198.870 161.558,196.434 162.908 " stroke="none" fill="#040404" fill-rule="evenodd"></path><path id="path3" d="" stroke="none" fill="#406c04" fill-rule="evenodd"></path><path id="path4" d="" stroke="none" fill="#440404" fill-rule="evenodd"></path></g></svg>
